# 3ds Max Wavefront OBJ Exporter v0.99 - (c)2007 guruware
# File Created: 12.05.2022 23:19:04

mtllib heavyPistol.mtl

#
# object heavy_pistol_Mesh
#

v  -0.0708 0.0090 0.2685
v  -0.0708 -0.0697 -0.1646
v  -0.0708 -0.0697 0.2685
v  -0.0708 0.0090 -0.1646
v  -0.0315 -0.1878 0.2291
v  -0.0315 -0.2666 0.2291
v  -0.0315 -0.2666 0.3079
v  -0.0315 -0.1485 0.1897
v  -0.0315 -0.1878 0.1897
v  -0.0315 -0.1091 0.3079
v  -0.0315 -0.1485 0.1110
v  -0.0315 -0.1091 0.2685
v  -0.0315 -0.1091 0.1897
v  -0.0315 -0.1091 0.1504
v  -0.0315 -0.1091 0.1110
v  -0.0315 -0.0697 0.2685
v  -0.0315 -0.0697 0.1897
v  -0.0315 -0.0697 0.1504
v  -0.0315 -0.0697 0.1110
v  -0.0315 -0.1091 0.0716
v  -0.0315 -0.0697 0.0716
v  -0.0315 0.0090 0.3079
v  -0.0315 -0.0697 0.3079
v  -0.0315 0.0090 0.2685
v  -0.0315 0.0484 0.2685
v  -0.0315 0.0090 -0.1252
v  -0.0315 0.0484 -0.1252
v  -0.0315 0.0090 -0.1646
v  -0.0315 0.0878 0.3079
v  -0.0315 0.0484 0.3079
v  -0.0315 0.0878 0.2685
v  -0.0315 0.0878 -0.1252
v  -0.0315 0.0878 -0.1646
v  0.0473 0.0090 -0.1252
v  0.0473 -0.0303 -0.1646
v  0.0473 -0.0303 -0.1252
v  0.0473 0.0090 -0.1646
v  -0.0315 -0.0303 -0.1252
v  -0.0315 -0.0303 -0.1646
v  0.0473 -0.2666 0.3079
v  0.0473 -0.2666 0.2291
v  0.0473 -0.1878 0.2291
v  0.0473 -0.1878 0.1897
v  0.0473 -0.1485 0.1897
v  0.0473 -0.1091 0.3079
v  0.0473 -0.1485 0.1110
v  0.0473 -0.1091 0.2685
v  0.0473 -0.1091 0.1897
v  0.0473 -0.1091 0.1504
v  0.0473 -0.1091 0.1110
v  0.0473 -0.0697 0.2685
v  0.0473 -0.0697 0.1897
v  0.0473 -0.0697 0.1504
v  0.0473 -0.1091 0.0716
v  0.0473 -0.0697 0.1110
v  0.0473 -0.0697 0.0716
v  0.0473 -0.0697 0.3079
v  0.0473 0.0090 0.3079
v  0.0473 0.0090 0.2685
v  0.0473 0.0484 0.2685
v  0.0473 0.0484 -0.1252
v  0.0473 0.0484 0.3079
v  0.0473 0.0878 0.3079
v  0.0473 0.0878 0.2685
v  0.0473 0.0878 -0.1252
v  0.0473 0.0878 -0.1646
v  0.0866 -0.0697 0.2685
v  0.0866 -0.0697 -0.1646
v  0.0866 0.0090 0.2685
v  0.0866 0.0090 -0.1646
v  -0.0315 -0.0697 -0.1252
v  0.0473 -0.0697 -0.1252
# 72 vertices

vn -1.0000 0.0000 -0.0000
vn 1.0000 0.0000 -0.0000
vn 0.0000 -0.0000 1.0000
vn 0.0000 0.0000 -1.0000
vn 0.0000 -1.0000 -0.0000
vn 0.0000 1.0000 0.0000
# 6 vertex normals

vt 0.9629 0.5000 0.0000
vt 0.9824 0.5000 0.0000
vt 0.9941 0.5000 0.0000
vt 0.9668 0.5000 0.0000
vt 0.9707 0.5000 0.0000
# 5 texture coords

o heavy_pistol_Mesh
g heavy_pistol_Mesh
usemtl Material__26
s off
f 1/1/1 2/1/1 3/1/1 
f 4/1/1 2/1/1 1/1/1 
f 5/2/1 6/2/1 7/2/1 
f 8/2/1 9/2/1 5/2/1 
f 10/2/1 5/2/1 7/2/1 
f 10/2/1 11/2/1 8/2/1 
f 10/2/1 8/2/1 5/2/1 
f 12/2/1 11/2/1 10/2/1 
f 13/2/1 11/2/1 12/2/1 
f 14/2/1 11/2/1 13/2/1 
f 15/2/1 11/2/1 14/2/1 
f 16/2/1 13/2/1 12/2/1 
f 17/3/1 14/3/1 13/3/1 
f 17/2/1 13/2/1 16/2/1 
f 18/3/1 14/3/1 17/3/1 
f 19/2/1 20/2/1 15/2/1 
f 21/2/1 20/2/1 19/2/1 
f 22/4/1 16/4/1 23/4/1 
f 24/4/1 16/4/1 22/4/1 
f 25/4/1 26/4/1 24/4/1 
f 27/1/1 28/1/1 26/1/1 
f 27/4/1 26/4/1 25/4/1 
f 29/5/1 25/5/1 30/5/1 
f 31/5/1 25/5/1 29/5/1 
f 32/1/1 28/1/1 27/1/1 
f 33/1/1 28/1/1 32/1/1 
f 34/1/1 35/1/1 36/1/1 
f 37/1/1 35/1/1 34/1/1 
f 38/1/2 39/1/2 26/1/2 
f 26/1/2 39/1/2 28/1/2 
f 40/2/2 41/2/2 42/2/2 
f 42/2/2 43/2/2 44/2/2 
f 40/2/2 42/2/2 45/2/2 
f 44/2/2 46/2/2 45/2/2 
f 42/2/2 44/2/2 45/2/2 
f 45/2/2 46/2/2 47/2/2 
f 47/2/2 46/2/2 48/2/2 
f 48/2/2 46/2/2 49/2/2 
f 49/2/2 46/2/2 50/2/2 
f 47/2/2 48/2/2 51/2/2 
f 48/3/2 49/3/2 52/3/2 
f 51/2/2 48/2/2 52/2/2 
f 52/3/2 49/3/2 53/3/2 
f 50/2/2 54/2/2 55/2/2 
f 55/2/2 54/2/2 56/2/2 
f 57/4/2 51/4/2 58/4/2 
f 58/4/2 51/4/2 59/4/2 
f 59/4/2 34/4/2 60/4/2 
f 34/1/2 37/1/2 61/1/2 
f 60/4/2 34/4/2 61/4/2 
f 62/5/2 60/5/2 63/5/2 
f 63/5/2 60/5/2 64/5/2 
f 61/1/2 37/1/2 65/1/2 
f 65/1/2 37/1/2 66/1/2 
f 67/1/2 68/1/2 69/1/2 
f 69/1/2 68/1/2 70/1/2 
f 40/2/3 10/2/3 7/2/3 
f 45/2/3 10/2/3 40/2/3 
f 57/4/3 22/4/3 23/4/3 
f 58/4/3 22/4/3 57/4/3 
f 62/5/3 29/5/3 30/5/3 
f 63/5/3 29/5/3 62/5/3 
f 16/1/3 1/1/3 3/1/3 
f 24/1/3 1/1/3 16/1/3 
f 47/2/3 16/2/3 12/2/3 
f 51/2/3 16/2/3 47/2/3 
f 59/4/3 25/4/3 24/4/3 
f 60/4/3 25/4/3 59/4/3 
f 67/1/3 59/1/3 51/1/3 
f 69/1/3 59/1/3 67/1/3 
f 50/2/3 19/2/3 15/2/3 
f 55/2/3 19/2/3 50/2/3 
f 61/1/3 32/1/3 27/1/3 
f 65/1/3 32/1/3 61/1/3 
f 25/5/4 31/5/4 60/5/4 
f 60/5/4 31/5/4 64/5/4 
f 6/2/4 5/2/4 41/2/4 
f 41/2/4 5/2/4 42/2/4 
f 9/2/4 8/2/4 43/2/4 
f 43/2/4 8/2/4 44/2/4 
f 14/3/4 18/3/4 49/3/4 
f 49/3/4 18/3/4 53/3/4 
f 11/2/4 15/2/4 46/2/4 
f 46/2/4 15/2/4 50/2/4 
f 20/2/4 21/2/4 54/2/4 
f 54/2/4 21/2/4 56/2/4 
f 38/3/4 26/3/4 36/3/4 
f 36/3/4 26/3/4 34/3/4 
f 2/1/4 4/1/4 39/1/4 
f 39/1/4 4/1/4 28/1/4 
f 2/1/4 39/1/4 35/1/4 
f 28/1/4 33/1/4 37/1/4 
f 37/1/4 33/1/4 66/1/4 
f 2/1/4 35/1/4 68/1/4 
f 35/1/4 37/1/4 68/1/4 
f 68/1/4 37/1/4 70/1/4 
f 6/2/5 40/2/5 7/2/5 
f 41/2/5 40/2/5 6/2/5 
f 9/2/5 42/2/5 5/2/5 
f 43/2/5 42/2/5 9/2/5 
f 11/2/5 44/2/5 8/2/5 
f 46/2/5 44/2/5 11/2/5 
f 20/2/5 50/2/5 15/2/5 
f 54/2/5 50/2/5 20/2/5 
f 16/4/5 57/4/5 23/4/5 
f 51/4/5 57/4/5 16/4/5 
f 17/1/5 16/1/5 3/1/5 
f 52/1/5 67/1/5 51/1/5 
f 18/1/5 17/1/5 3/1/5 
f 53/1/5 67/1/5 52/1/5 
f 19/1/5 18/1/5 3/1/5 
f 19/4/5 53/4/5 18/4/5 
f 55/1/5 67/1/5 53/1/5 
f 55/4/5 53/4/5 19/4/5 
f 21/1/5 19/1/5 3/1/5 
f 56/1/5 67/1/5 55/1/5 
f 71/1/5 21/1/5 3/1/5 
f 71/4/5 56/4/5 21/4/5 
f 72/1/5 67/1/5 56/1/5 
f 72/4/5 56/4/5 71/4/5 
f 2/1/5 71/1/5 3/1/5 
f 2/1/5 72/1/5 71/1/5 
f 68/1/5 67/1/5 72/1/5 
f 68/1/5 72/1/5 2/1/5 
f 28/1/5 34/1/5 26/1/5 
f 37/1/5 34/1/5 28/1/5 
f 25/5/5 62/5/5 30/5/5 
f 60/5/5 62/5/5 25/5/5 
f 10/2/6 45/2/6 12/2/6 
f 12/2/6 45/2/6 47/2/6 
f 14/2/6 49/2/6 15/2/6 
f 15/2/6 49/2/6 50/2/6 
f 38/1/6 36/1/6 39/1/6 
f 39/1/6 36/1/6 35/1/6 
f 22/4/6 58/4/6 24/4/6 
f 24/4/6 58/4/6 59/4/6 
f 1/1/6 24/1/6 26/1/6 
f 59/1/6 69/1/6 34/1/6 
f 1/1/6 26/1/6 4/1/6 
f 4/1/6 26/1/6 28/1/6 
f 34/1/6 69/1/6 37/1/6 
f 37/1/6 69/1/6 70/1/6 
f 25/4/6 60/4/6 27/4/6 
f 27/4/6 60/4/6 61/4/6 
f 29/5/6 63/5/6 31/5/6 
f 31/5/6 63/5/6 64/5/6 
f 32/1/6 65/1/6 33/1/6 
f 33/1/6 65/1/6 66/1/6 
# 148 faces

