# 3ds Max Wavefront OBJ Exporter v0.99 - (c)2007 guruware
# File Created: 12.05.2022 23:21:19

mtllib machine_pistol.mtl

#
# object machine_pistol_Mesh
#

v  -0.0701 0.0629 0.1192
v  -0.0701 -0.0158 -0.0383
v  -0.0701 -0.0158 0.1192
v  -0.0701 0.0629 -0.0383
v  -0.0307 -0.1339 0.0405
v  -0.0307 -0.1733 -0.0383
v  -0.0307 -0.1733 0.0405
v  -0.0307 -0.0946 0.2373
v  -0.0307 -0.1733 0.2373
v  -0.0307 -0.1733 0.3160
v  -0.0307 -0.0946 0.0011
v  -0.0307 -0.1339 0.0798
v  -0.0307 -0.0946 -0.0383
v  -0.0307 -0.0552 0.3160
v  -0.0307 -0.0946 0.1979
v  -0.0307 -0.0552 0.2767
v  -0.0307 -0.0552 0.1979
v  -0.0307 -0.0946 0.1192
v  -0.0307 -0.0552 0.1586
v  -0.0307 -0.0552 0.1192
v  -0.0307 -0.0552 0.0798
v  -0.0307 -0.0158 0.2767
v  -0.0307 -0.0158 0.2373
v  -0.0307 -0.0158 0.1979
v  -0.0307 -0.0158 0.1586
v  -0.0307 -0.0158 0.1192
v  -0.0307 -0.0158 0.0798
v  -0.0307 -0.0158 0.0011
v  -0.0307 0.0236 0.2373
v  -0.0307 0.0236 0.1979
v  -0.0307 0.0236 -0.0777
v  -0.0307 -0.0158 -0.3139
v  -0.0307 -0.0158 -0.0383
v  -0.0307 0.0236 -0.1170
v  -0.0307 0.0236 -0.1564
v  -0.0307 0.0236 -0.1958
v  -0.0307 0.0236 -0.2351
v  -0.0307 0.0236 -0.2745
v  -0.0307 0.0236 -0.3139
v  -0.0307 0.0629 0.1979
v  -0.0307 0.0629 0.1192
v  -0.0307 0.0629 -0.0383
v  -0.0307 0.0629 -0.0777
v  -0.0307 0.0629 -0.1170
v  -0.0307 0.0629 -0.1564
v  -0.0307 0.0629 -0.1958
v  -0.0307 0.0629 -0.2351
v  -0.0307 0.0629 -0.2745
v  -0.0307 0.0629 -0.3139
v  -0.0307 0.0236 -0.3532
v  -0.0307 0.0629 -0.3532
v  -0.0307 0.1023 0.2373
v  -0.0307 0.0629 0.2373
v  -0.0307 0.1023 0.1979
v  -0.0307 0.1023 0.1192
v  -0.0307 0.1023 -0.0383
v  -0.0307 0.1023 -0.3139
v  0.0481 -0.1733 0.0405
v  0.0481 -0.1733 -0.0383
v  0.0481 -0.1339 0.0405
v  0.0481 -0.1733 0.3160
v  0.0481 -0.1733 0.2373
v  0.0481 -0.0946 0.2373
v  0.0481 -0.1339 0.0798
v  0.0481 -0.0946 0.0011
v  0.0481 -0.0946 -0.0383
v  0.0481 -0.0946 0.1979
v  0.0481 -0.0552 0.3160
v  0.0481 -0.0552 0.2767
v  0.0481 -0.0946 0.1192
v  0.0481 -0.0552 0.1979
v  0.0481 -0.0552 0.1586
v  0.0481 -0.0552 0.1192
v  0.0481 -0.0552 0.0798
v  0.0481 -0.0158 0.2767
v  0.0481 -0.0158 0.2373
v  0.0481 -0.0158 0.1979
v  0.0481 -0.0158 0.1586
v  0.0481 -0.0158 0.1192
v  0.0481 -0.0158 0.0798
v  0.0481 -0.0158 0.0011
v  0.0481 0.0236 0.2373
v  0.0481 0.0236 0.1979
v  0.0481 -0.0158 -0.0383
v  0.0481 -0.0158 -0.3139
v  0.0481 0.0236 -0.0777
v  0.0481 0.0236 -0.1170
v  0.0481 0.0236 -0.1564
v  0.0481 0.0236 -0.1958
v  0.0481 0.0236 -0.2351
v  0.0481 0.0236 -0.2745
v  0.0481 0.0236 -0.3139
v  0.0481 0.0629 0.1979
v  0.0481 0.0629 0.1192
v  0.0481 0.0629 -0.0383
v  0.0481 0.0629 -0.0777
v  0.0481 0.0629 -0.1170
v  0.0481 0.0629 -0.1564
v  0.0481 0.0629 -0.1958
v  0.0481 0.0629 -0.2351
v  0.0481 0.0629 -0.2745
v  0.0481 0.0236 -0.3532
v  0.0481 0.0629 -0.3139
v  0.0481 0.0629 -0.3532
v  0.0481 0.0629 0.2373
v  0.0481 0.1023 0.2373
v  0.0481 0.1023 0.1979
v  0.0481 0.1023 0.1192
v  0.0481 0.1023 -0.0383
v  0.0481 0.1023 -0.3139
v  0.0874 -0.0158 0.1192
v  0.0874 -0.0158 -0.0383
v  0.0874 0.0629 0.1192
v  0.0874 0.0629 -0.0383
# 114 vertices

vn -1.0000 0.0000 -0.0000
vn 1.0000 0.0000 -0.0000
vn 0.0000 -0.0000 1.0000
vn 0.0000 0.0000 -1.0000
vn 0.0000 -1.0000 -0.0000
vn 0.0000 1.0000 0.0000
# 6 vertex normals

vt 0.9902 0.5000 0.0000
vt 0.9824 0.5000 0.0000
vt 0.9863 0.5000 0.0000
vt 0.9941 0.5000 0.0000
# 4 texture coords

o machine_pistol_Mesh
g machine_pistol_Mesh
usemtl Material__28
s off
f 1/1/1 2/1/1 3/1/1 
f 4/1/1 2/1/1 1/1/1 
f 5/2/1 6/2/1 7/2/1 
f 8/2/1 9/2/1 10/2/1 
f 11/2/1 5/2/1 12/2/1 
f 11/2/1 6/2/1 5/2/1 
f 13/2/1 6/2/1 11/2/1 
f 14/2/1 15/2/1 8/2/1 
f 14/2/1 8/2/1 10/2/1 
f 16/2/1 15/2/1 14/2/1 
f 17/3/1 18/3/1 15/3/1 
f 17/2/1 15/2/1 16/2/1 
f 19/3/1 18/3/1 17/3/1 
f 20/3/1 18/3/1 19/3/1 
f 21/2/1 11/2/1 12/2/1 
f 22/2/1 17/2/1 16/2/1 
f 23/2/1 17/2/1 22/2/1 
f 24/4/1 19/4/1 17/4/1 
f 24/2/1 17/2/1 23/2/1 
f 25/4/1 19/4/1 24/4/1 
f 26/3/1 21/3/1 20/3/1 
f 27/2/1 11/2/1 21/2/1 
f 27/3/1 21/3/1 26/3/1 
f 28/2/1 11/2/1 27/2/1 
f 29/3/1 25/3/1 24/3/1 
f 29/3/1 26/3/1 25/3/1 
f 29/3/1 24/3/1 23/3/1 
f 30/3/1 26/3/1 29/3/1 
f 31/3/1 32/3/1 33/3/1 
f 34/3/1 32/3/1 31/3/1 
f 35/3/1 32/3/1 34/3/1 
f 36/3/1 32/3/1 35/3/1 
f 37/3/1 32/3/1 36/3/1 
f 38/3/1 32/3/1 37/3/1 
f 39/3/1 32/3/1 38/3/1 
f 40/3/1 26/3/1 30/3/1 
f 41/3/1 26/3/1 40/3/1 
f 42/3/1 31/3/1 33/3/1 
f 43/4/1 34/4/1 31/4/1 
f 43/3/1 31/3/1 42/3/1 
f 44/3/1 35/3/1 34/3/1 
f 44/4/1 34/4/1 43/4/1 
f 45/4/1 36/4/1 35/4/1 
f 45/3/1 35/3/1 44/3/1 
f 46/3/1 37/3/1 36/3/1 
f 46/4/1 36/4/1 45/4/1 
f 47/4/1 38/4/1 37/4/1 
f 47/3/1 37/3/1 46/3/1 
f 48/3/1 39/3/1 38/3/1 
f 48/4/1 38/4/1 47/4/1 
f 49/4/1 50/4/1 39/4/1 
f 49/3/1 39/3/1 48/3/1 
f 51/4/1 50/4/1 49/4/1 
f 52/3/1 40/3/1 53/3/1 
f 54/3/1 40/3/1 52/3/1 
f 55/1/1 42/1/1 41/1/1 
f 56/3/1 47/3/1 46/3/1 
f 56/1/1 42/1/1 55/1/1 
f 56/3/1 48/3/1 47/3/1 
f 56/3/1 43/3/1 42/3/1 
f 56/3/1 44/3/1 43/3/1 
f 56/3/1 49/3/1 48/3/1 
f 56/3/1 45/3/1 44/3/1 
f 56/3/1 46/3/1 45/3/1 
f 57/3/1 49/3/1 56/3/1 
f 58/2/2 59/2/2 60/2/2 
f 61/2/2 62/2/2 63/2/2 
f 64/2/2 60/2/2 65/2/2 
f 60/2/2 59/2/2 65/2/2 
f 65/2/2 59/2/2 66/2/2 
f 63/2/2 67/2/2 68/2/2 
f 61/2/2 63/2/2 68/2/2 
f 68/2/2 67/2/2 69/2/2 
f 67/3/2 70/3/2 71/3/2 
f 69/2/2 67/2/2 71/2/2 
f 71/3/2 70/3/2 72/3/2 
f 72/3/2 70/3/2 73/3/2 
f 64/2/2 65/2/2 74/2/2 
f 69/2/2 71/2/2 75/2/2 
f 75/2/2 71/2/2 76/2/2 
f 71/4/2 72/4/2 77/4/2 
f 76/2/2 71/2/2 77/2/2 
f 77/4/2 72/4/2 78/4/2 
f 73/3/2 74/3/2 79/3/2 
f 74/2/2 65/2/2 80/2/2 
f 79/3/2 74/3/2 80/3/2 
f 80/2/2 65/2/2 81/2/2 
f 77/3/2 78/3/2 82/3/2 
f 78/3/2 79/3/2 82/3/2 
f 76/3/2 77/3/2 82/3/2 
f 82/3/2 79/3/2 83/3/2 
f 84/3/2 85/3/2 86/3/2 
f 86/3/2 85/3/2 87/3/2 
f 87/3/2 85/3/2 88/3/2 
f 88/3/2 85/3/2 89/3/2 
f 89/3/2 85/3/2 90/3/2 
f 90/3/2 85/3/2 91/3/2 
f 91/3/2 85/3/2 92/3/2 
f 83/3/2 79/3/2 93/3/2 
f 93/3/2 79/3/2 94/3/2 
f 84/3/2 86/3/2 95/3/2 
f 86/4/2 87/4/2 96/4/2 
f 95/3/2 86/3/2 96/3/2 
f 87/3/2 88/3/2 97/3/2 
f 96/4/2 87/4/2 97/4/2 
f 88/4/2 89/4/2 98/4/2 
f 97/3/2 88/3/2 98/3/2 
f 89/3/2 90/3/2 99/3/2 
f 98/4/2 89/4/2 99/4/2 
f 90/4/2 91/4/2 100/4/2 
f 99/3/2 90/3/2 100/3/2 
f 91/3/2 92/3/2 101/3/2 
f 100/4/2 91/4/2 101/4/2 
f 92/4/2 102/4/2 103/4/2 
f 101/3/2 92/3/2 103/3/2 
f 103/4/2 102/4/2 104/4/2 
f 105/3/2 93/3/2 106/3/2 
f 106/3/2 93/3/2 107/3/2 
f 94/1/2 95/1/2 108/1/2 
f 99/3/2 100/3/2 109/3/2 
f 108/1/2 95/1/2 109/1/2 
f 100/3/2 101/3/2 109/3/2 
f 95/3/2 96/3/2 109/3/2 
f 96/3/2 97/3/2 109/3/2 
f 101/3/2 103/3/2 109/3/2 
f 97/3/2 98/3/2 109/3/2 
f 98/3/2 99/3/2 109/3/2 
f 109/3/2 103/3/2 110/3/2 
f 111/1/2 112/1/2 113/1/2 
f 113/1/2 112/1/2 114/1/2 
f 61/2/3 14/2/3 10/2/3 
f 68/2/3 14/2/3 61/2/3 
f 69/2/3 22/2/3 16/2/3 
f 75/2/3 22/2/3 69/2/3 
f 76/3/3 29/3/3 23/3/3 
f 82/3/3 29/3/3 76/3/3 
f 105/3/3 52/3/3 53/3/3 
f 106/3/3 52/3/3 105/3/3 
f 83/3/3 40/3/3 30/3/3 
f 93/3/3 40/3/3 83/3/3 
f 26/1/3 1/1/3 3/1/3 
f 41/1/3 1/1/3 26/1/3 
f 73/3/3 26/3/3 20/3/3 
f 79/3/3 26/3/3 73/3/3 
f 94/1/3 55/1/3 41/1/3 
f 108/1/3 55/1/3 94/1/3 
f 111/1/3 94/1/3 79/1/3 
f 113/1/3 94/1/3 111/1/3 
f 64/2/3 21/2/3 12/2/3 
f 74/2/3 21/2/3 64/2/3 
f 58/2/3 5/2/3 7/2/3 
f 60/2/3 5/2/3 58/2/3 
f 9/2/4 8/2/4 62/2/4 
f 62/2/4 8/2/4 63/2/4 
f 40/3/4 54/3/4 93/3/4 
f 93/3/4 54/3/4 107/3/4 
f 19/4/4 25/4/4 72/4/4 
f 72/4/4 25/4/4 78/4/4 
f 18/3/4 20/3/4 70/3/4 
f 70/3/4 20/3/4 73/3/4 
f 11/2/4 28/2/4 65/2/4 
f 65/2/4 28/2/4 81/2/4 
f 2/1/4 4/1/4 33/1/4 
f 33/1/4 4/1/4 42/1/4 
f 6/2/4 13/2/4 59/2/4 
f 59/2/4 13/2/4 66/2/4 
f 84/1/4 95/1/4 112/1/4 
f 112/1/4 95/1/4 114/1/4 
f 32/3/4 39/3/4 85/3/4 
f 85/3/4 39/3/4 92/3/4 
f 49/3/4 57/3/4 103/3/4 
f 103/3/4 57/3/4 110/3/4 
f 50/4/4 51/4/4 102/4/4 
f 102/4/4 51/4/4 104/4/4 
f 9/2/5 61/2/5 10/2/5 
f 62/2/5 61/2/5 9/2/5 
f 6/2/5 58/2/5 7/2/5 
f 59/2/5 58/2/5 6/2/5 
f 5/2/5 64/2/5 12/2/5 
f 60/2/5 64/2/5 5/2/5 
f 15/2/5 63/2/5 8/2/5 
f 67/2/5 63/2/5 15/2/5 
f 18/3/5 67/3/5 15/3/5 
f 70/3/5 67/3/5 18/3/5 
f 21/3/5 73/3/5 20/3/5 
f 74/3/5 73/3/5 21/3/5 
f 26/3/5 78/3/5 25/3/5 
f 79/3/5 78/3/5 26/3/5 
f 27/1/5 26/1/5 3/1/5 
f 80/1/5 111/1/5 79/1/5 
f 28/1/5 27/1/5 3/1/5 
f 81/1/5 111/1/5 80/1/5 
f 2/1/5 28/1/5 3/1/5 
f 2/1/5 81/1/5 28/1/5 
f 33/1/5 81/1/5 2/1/5 
f 84/1/5 111/1/5 81/1/5 
f 84/1/5 81/1/5 33/1/5 
f 112/1/5 111/1/5 84/1/5 
f 32/3/5 84/3/5 33/3/5 
f 85/3/5 84/3/5 32/3/5 
f 50/4/5 92/4/5 39/4/5 
f 102/4/5 92/4/5 50/4/5 
f 40/3/5 105/3/5 53/3/5 
f 93/3/5 105/3/5 40/3/5 
f 11/2/6 65/2/6 13/2/6 
f 13/2/6 65/2/6 66/2/6 
f 14/2/6 68/2/6 16/2/6 
f 16/2/6 68/2/6 69/2/6 
f 19/3/6 72/3/6 20/3/6 
f 20/3/6 72/3/6 73/3/6 
f 22/2/6 75/2/6 23/2/6 
f 23/2/6 75/2/6 76/2/6 
f 29/3/6 82/3/6 30/3/6 
f 30/3/6 82/3/6 83/3/6 
f 40/3/6 93/3/6 41/3/6 
f 41/3/6 93/3/6 94/3/6 
f 1/1/6 41/1/6 4/1/6 
f 4/1/6 41/1/6 42/1/6 
f 94/1/6 113/1/6 95/1/6 
f 95/1/6 113/1/6 114/1/6 
f 49/4/6 103/4/6 51/4/6 
f 51/4/6 103/4/6 104/4/6 
f 52/3/6 106/3/6 54/3/6 
f 54/3/6 106/3/6 107/3/6 
f 55/1/6 108/1/6 56/1/6 
f 56/1/6 108/1/6 109/1/6 
f 56/3/6 109/3/6 57/3/6 
f 57/3/6 109/3/6 110/3/6 
# 228 faces

