# 3ds Max Wavefront OBJ Exporter v0.99 - (c)2007 guruware
# File Created: 12.05.2022 23:14:37

mtllib pistol.mtl

#
# object pistol_Mesh
#

v  -0.0354 -0.1076 0.0067
v  -0.0354 -0.2651 0.0067
v  -0.0354 -0.2651 0.0854
v  -0.0354 -0.0682 0.0854
v  -0.0354 -0.1076 -0.0721
v  -0.0354 -0.0682 0.0067
v  -0.0354 -0.0682 -0.0327
v  -0.0354 -0.0682 -0.0721
v  -0.0354 -0.0289 0.0067
v  -0.0354 -0.0682 0.1248
v  -0.0354 -0.0289 -0.0327
v  -0.0354 -0.0289 -0.0721
v  -0.0354 -0.0682 -0.1114
v  -0.0354 -0.0289 -0.1114
v  -0.0354 0.0105 0.1248
v  -0.0354 -0.0289 -0.3083
v  -0.0354 0.0105 0.0854
v  -0.0354 0.0105 -0.0327
v  -0.0354 0.0105 -0.2296
v  -0.0354 0.0499 0.0854
v  -0.0354 0.0499 -0.0327
v  -0.0354 0.0499 -0.2296
v  -0.0354 0.0499 -0.3083
v  -0.0354 0.0893 0.1248
v  -0.0354 0.0499 0.1248
v  -0.0354 0.0893 0.0854
v  0.0434 -0.2651 0.0854
v  0.0434 -0.2651 0.0067
v  0.0434 -0.1076 0.0067
v  0.0434 -0.0682 0.0854
v  0.0434 -0.1076 -0.0721
v  0.0434 -0.0682 0.0067
v  0.0434 -0.0682 -0.0327
v  0.0434 -0.0682 -0.0721
v  0.0434 -0.0682 0.1248
v  0.0434 -0.0289 0.0067
v  0.0434 -0.0289 -0.0327
v  0.0434 -0.0682 -0.1114
v  0.0434 -0.0289 -0.0721
v  0.0434 -0.0289 -0.1114
v  0.0434 0.0105 0.1248
v  0.0434 -0.0289 -0.3083
v  0.0434 0.0105 0.0854
v  0.0434 0.0105 -0.0327
v  0.0434 0.0105 -0.2296
v  0.0434 0.0499 0.0854
v  0.0434 0.0499 -0.0327
v  0.0434 0.0499 -0.2296
v  0.0434 0.0499 -0.3083
v  0.0434 0.0499 0.1248
v  0.0434 0.0893 0.1248
v  0.0434 0.0893 0.0854
# 52 vertices

vn -1.0000 0.0000 -0.0000
vn 1.0000 0.0000 -0.0000
vn 0.0000 -0.0000 1.0000
vn 0.0000 0.0000 -1.0000
vn 0.0000 -1.0000 -0.0000
vn 0.0000 1.0000 0.0000
# 6 vertex normals

vt 0.9863 0.5000 0.0000
vt 0.9824 0.5000 0.0000
vt 0.9941 0.5000 0.0000
vt 0.9785 0.5000 0.0000
# 4 texture coords

o pistol_Mesh
g pistol_Mesh
usemtl Material__27
s off
f 1/1/1 2/1/1 3/1/1 
f 4/1/1 1/1/1 3/1/1 
f 4/1/1 5/1/1 1/1/1 
f 6/1/1 5/1/1 4/1/1 
f 7/1/1 5/1/1 6/1/1 
f 8/1/1 5/1/1 7/1/1 
f 9/2/1 4/2/1 10/2/1 
f 9/2/1 6/2/1 4/2/1 
f 9/3/1 7/3/1 6/3/1 
f 11/3/1 7/3/1 9/3/1 
f 12/1/1 13/1/1 8/1/1 
f 14/1/1 13/1/1 12/1/1 
f 15/2/1 11/2/1 9/2/1 
f 15/2/1 16/2/1 14/2/1 
f 15/2/1 14/2/1 12/2/1 
f 15/2/1 12/2/1 11/2/1 
f 15/2/1 9/2/1 10/2/1 
f 17/2/1 16/2/1 15/2/1 
f 18/2/1 16/2/1 17/2/1 
f 19/2/1 16/2/1 18/2/1 
f 20/2/1 18/2/1 17/2/1 
f 21/4/1 19/4/1 18/4/1 
f 21/2/1 18/2/1 20/2/1 
f 22/2/1 16/2/1 19/2/1 
f 22/4/1 19/4/1 21/4/1 
f 23/2/1 16/2/1 22/2/1 
f 24/2/1 20/2/1 25/2/1 
f 26/2/1 20/2/1 24/2/1 
f 27/1/2 28/1/2 29/1/2 
f 27/1/2 29/1/2 30/1/2 
f 29/1/2 31/1/2 30/1/2 
f 30/1/2 31/1/2 32/1/2 
f 32/1/2 31/1/2 33/1/2 
f 33/1/2 31/1/2 34/1/2 
f 35/2/2 30/2/2 36/2/2 
f 30/2/2 32/2/2 36/2/2 
f 32/3/2 33/3/2 36/3/2 
f 36/3/2 33/3/2 37/3/2 
f 34/1/2 38/1/2 39/1/2 
f 39/1/2 38/1/2 40/1/2 
f 36/2/2 37/2/2 41/2/2 
f 40/2/2 42/2/2 41/2/2 
f 39/2/2 40/2/2 41/2/2 
f 37/2/2 39/2/2 41/2/2 
f 35/2/2 36/2/2 41/2/2 
f 41/2/2 42/2/2 43/2/2 
f 43/2/2 42/2/2 44/2/2 
f 44/2/2 42/2/2 45/2/2 
f 43/2/2 44/2/2 46/2/2 
f 44/4/2 45/4/2 47/4/2 
f 46/2/2 44/2/2 47/2/2 
f 45/2/2 42/2/2 48/2/2 
f 47/4/2 45/4/2 48/4/2 
f 48/2/2 42/2/2 49/2/2 
f 50/2/2 46/2/2 51/2/2 
f 51/2/2 46/2/2 52/2/2 
f 35/2/3 15/2/3 10/2/3 
f 41/2/3 15/2/3 35/2/3 
f 50/2/3 24/2/3 25/2/3 
f 51/2/3 24/2/3 50/2/3 
f 27/1/3 4/1/3 3/1/3 
f 30/1/3 4/1/3 27/1/3 
f 43/2/3 20/2/3 17/2/3 
f 46/2/3 20/2/3 43/2/3 
f 34/1/3 12/1/3 8/1/3 
f 39/1/3 12/1/3 34/1/3 
f 20/2/4 26/2/4 46/2/4 
f 46/2/4 26/2/4 52/2/4 
f 2/1/4 1/1/4 28/1/4 
f 28/1/4 1/1/4 29/1/4 
f 7/3/4 11/3/4 33/3/4 
f 33/3/4 11/3/4 37/3/4 
f 5/1/4 8/1/4 31/1/4 
f 31/1/4 8/1/4 34/1/4 
f 13/1/4 14/1/4 38/1/4 
f 38/1/4 14/1/4 40/1/4 
f 16/2/4 23/2/4 42/2/4 
f 42/2/4 23/2/4 49/2/4 
f 2/1/5 27/1/5 3/1/5 
f 28/1/5 27/1/5 2/1/5 
f 5/1/5 29/1/5 1/1/5 
f 31/1/5 29/1/5 5/1/5 
f 4/2/5 35/2/5 10/2/5 
f 30/2/5 35/2/5 4/2/5 
f 13/1/5 34/1/5 8/1/5 
f 38/1/5 34/1/5 13/1/5 
f 12/2/5 37/2/5 11/2/5 
f 39/2/5 37/2/5 12/2/5 
f 16/2/5 40/2/5 14/2/5 
f 42/2/5 40/2/5 16/2/5 
f 20/2/5 50/2/5 25/2/5 
f 46/2/5 50/2/5 20/2/5 
f 7/1/6 33/1/6 8/1/6 
f 8/1/6 33/1/6 34/1/6 
f 15/2/6 41/2/6 17/2/6 
f 17/2/6 41/2/6 43/2/6 
f 20/2/6 46/2/6 21/2/6 
f 21/2/6 46/2/6 47/2/6 
f 21/4/6 47/4/6 22/4/6 
f 22/4/6 47/4/6 48/4/6 
f 22/2/6 48/2/6 23/2/6 
f 23/2/6 48/2/6 49/2/6 
f 24/2/6 51/2/6 26/2/6 
f 26/2/6 51/2/6 52/2/6 
# 104 faces

